#!OML:ASF F:\VICON\USERDATA\INSTALL\rory3\rory3.ASF
:FULLY-SPECIFIED
:DEGREES
110
root 0.0736794 18.0238 2.88163 -3.45354 1.38123 -1.71724
lowerback 9.59845 -1.748 -0.111456
upperback 0.0952129 -2.20182 2.55488
thorax -5.18078 -1.05244 3.03689
lowerneck -16.4764 -2.67436 -1.83133
upperneck 22.8573 -2.99261 -1.06713
head 10.0095 -1.67359 -0.46896
rclavicle 1.44367e-014 5.56597e-015
rhumerus -40.3851 -34.9932 -64.9618
rradius 18.2236
rwrist 13.4516
rhand -18.2395 25.7213
rfingers 7.12502
rthumb 8.0392 -4.10582
lclavicle 1.44367e-014 5.56597e-015
lhumerus -26.3917 1.59329 81.9
lradius 32.1131
lwrist 8.20036
lhand -29.7082 20.3945
lfingers 7.12502
lthumb -3.03562 50.3527
rfemur -21.2123 4.66849 25.2099
rtibia 29.2408
rfoot -5.6674 -3.59464
rtoes 6.53588
lfemur 7.68272 -3.3182 -20.5583
ltibia 46.007
lfoot 12.1055 -9.84923
ltoes 18.629
111
root 0.048875 18.0527 3.0742 -3.50386 1.44417 -2.1138
lowerback 9.57899 -1.67845 0.259826
upperback 0.299493 -2.07134 2.57218
thorax -4.975 -1.00006 2.82102
lowerneck -17.1611 -2.72385 -1.65236
upperneck 22.9038 -3.14301 -0.878728
head 10.1557 -1.70322 -0.46441
rclavicle 1.00635e-014 -4.37326e-015
rhumerus -39.9447 -35.3472 -65.3552
rradius 18.2216
rwrist 13.2872
rhand -18.7297 24.9707
rfingers 7.12502
rthumb 7.56604 -4.87393
lclavicle 1.00635e-014 -4.37326e-015
lhumerus -26.2263 1.16877 82.0741
lradius 32.0032
lwrist 8.41043
lhand -29.2976 22.1622
lfingers 7.12502
lthumb -2.63911 52.1256
rfemur -20.4572 4.53965 25.8514
rtibia 29.2204
rfoot -5.56044 -3.5458
rtoes 5.89278
lfemur 6.02981 -3.14842 -19.8314
ltibia 48.7587
lfoot 14.7468 -14.6296
ltoes -4.03329
112
root 0.024297 18.0773 3.26836 -3.51366 1.41635 -2.79893
lowerback 9.60725 -1.62649 0.939676
upperback 0.297189 -1.91973 2.69902
thorax -5.01848 -0.939055 2.55157
lowerneck -16.9493 -2.7849 -1.57965
upperneck 22.4293 -3.26885 -0.811525
head 9.94556 -1.74672 -0.460689
rclavicle 9.50439e-015 -1.43125e-014
rhumerus -39.5737 -34.7791 -65.967
rradius 18.3209
rwrist 12.6421
rhand -19.3005 23.6213
rfingers 7.12502
rthumb 7.01503 -6.24244
lclavicle 9.50439e-015 -1.43125e-014
lhumerus -26.4627 0.75102 82.2763
lradius 31.9417
lwrist 8.63326
lhand -29.0066 22.5658
lfingers 7.12502
lthumb -2.35811 52.5325
rfemur -19.7352 4.47413 26.823
rtibia 29.2583
rfoot -5.74727 -3.5714
rtoes 5.05577
lfemur 4.36724 -2.89313 -18.7579
ltibia 51.3836
lfoot 16.5772 -18.5132
ltoes -16.5112
113
root 0.00220911 18.0846 3.45773 -3.61831 1.15111 -3.21875
lowerback 9.87854 -1.48832 1.28135
upperback 0.173991 -1.67998 2.80991
thorax -5.31543 -0.825509 2.45553
lowerneck -16.4393 -2.89144 -1.6643
upperneck 22.0829 -3.41917 -0.752951
head 9.73007 -1.81762 -0.43348
rclavicle -4.07509e-014 1.59028e-014
rhumerus -39.2324 -33.4951 -66.8925
rradius 18.5952
rwrist 11.351
rhand -19.7692 22.6667
rfingers 7.12502
rthumb 6.56262 -7.21164
lclavicle -4.07509e-014 1.59028e-014
lhumerus -26.9105 0.695376 82.5003
lradius 31.8646
lwrist 8.45509
lhand -29.1315 23.6813
lfingers 7.12502
lthumb -2.47869 53.6467
rfemur -18.9673 4.60687 27.5114
rtibia 29.3339
rfoot -6.22451 -3.6138
rtoes 5.61591
lfemur 2.92725 -2.32476 -18.0005
ltibia 53.8248
lfoot 17.1785 -17.6552
ltoes -5.41916
114
root -0.0172498 18.092 3.64941 -3.59804 0.911775 -3.31709
lowerback 10.0095 -1.30784 1.33081
upperback 0.12884 -1.43043 2.7743
thorax -5.44642 -0.703416 2.3601
lowerneck -16.656 -2.97042 -1.51548
upperneck 22.2855 -3.57929 -0.703789
head 9.84073 -1.87271 -0.468455
rclavicle 1.45486e-014 -1.47101e-014
rhumerus -38.6239 -32.1463 -68.2385
rradius 19.0781
rwrist 10.2255
rhand -19.8832 21.8761
rfingers 7.12502
rthumb 6.45258 -8.00559
lclavicle 1.45486e-014 -1.47101e-014
lhumerus -27.1232 0.595541 82.6166
lradius 31.3476
lwrist 8.77218
lhand -28.9452 20.0232
lfingers 7.12502
lthumb -2.29876 49.9906
rfemur -18.3483 4.67197 27.8219
rtibia 29.4481
rfoot -6.80967 -3.54739
rtoes 6.34469
lfemur 1.34924 -1.74281 -17.6376
ltibia 56.0864
lfoot 16.6184 -17.2299
ltoes 0.195134
115
root -0.0329997 18.104 3.84585 -3.63265 0.698888 -3.4026
lowerback 9.95882 -1.12315 1.43982
upperback 0.157344 -1.17644 2.73845
thorax -5.3984 -0.581738 2.22211
lowerneck -16.7647 -3.0478 -1.60678
upperneck 22.4138 -3.71513 -0.487296
head 9.91393 -1.91712 -0.399511
rclavicle -1.41758e-014 -7.95139e-016
rhumerus -38.1566 -31.5351 -68.861
rradius 19.172
rwrist 10.5758
rhand -19.6277 21.0409
rfingers 7.12502
rthumb 6.69926 -8.83313
lclavicle -1.41758e-014 -7.95139e-016
lhumerus -27.2867 0.513941 82.8086
lradius 31.0387
lwrist 8.70469
lhand -28.6979 22.8198
lfingers 7.12502
lthumb -2.05995 52.7896
rfemur -17.6272 4.71414 28.0967
rtibia 29.5467
rfoot -7.40603 -3.50918
rtoes 6.81442
lfemur -0.0936567 -1.18377 -17.3288
ltibia 58.1114
lfoot 15.2175 -16.6654
ltoes -4.78472
116
root -0.0515814 18.1217 4.03018 -3.61029 0.597236 -3.5256
lowerback 9.76866 -1.038 1.56686
upperback 0.183553 -1.05648 2.7265
thorax -5.26973 -0.526395 2.11517
lowerneck -16.4412 -3.05073 -1.82604
upperneck 22.2246 -3.74751 -0.15308
head 9.79818 -1.91291 -0.243211
rclavicle -6.67792e-015 5.56597e-015
rhumerus -37.8169 -31.6276 -68.8643
rradius 18.7315
rwrist 11.4811
rhand -19.1485 21.1607
rfingers 7.12502
rthumb 7.16183 -8.69807
lclavicle -6.67792e-015 5.56597e-015
lhumerus -27.4757 0.621544 82.9084
lradius 30.8575
lwrist 8.37093
lhand -28.4348 26.0658
lfingers 7.12502
lthumb -1.80584 56.0379
rfemur -16.9469 4.75208 28.3784
rtibia 29.5358
rfoot -7.91862 -3.59389
rtoes 7.6658
lfemur -1.49018 -0.831048 -17.0095
ltibia 59.9571
lfoot 13.092 -16.0139
ltoes -6.31511
117
root -0.071349 18.1398 4.21285 -3.67455 0.561476 -3.71998
lowerback 9.67111 -0.963098 1.76508
upperback 0.294137 -0.944249 2.67513
thorax -5.10571 -0.47675 1.92926
lowerneck -16.2741 -3.08151 -1.7641
upperneck 21.9739 -3.8435 -0.0092152
head 9.68054 -1.93642 -0.210524
rclavicle 3.11222e-015 -3.06128e-014
rhumerus -37.4049 -32.0602 -68.9863
rradius 18.3957
rwrist 12.2806
rhand -18.8542 21.5069
rfingers 7.12502
rthumb 7.44587 -8.3421
lclavicle 3.11222e-015 -3.06128e-014
lhumerus -27.5042 0.739053 82.9009
lradius 30.5952
lwrist 8.0016
lhand -28.2572 25.9993
lfingers 7.12502
lthumb -1.63435 55.9728
rfemur -16.12 4.66753 28.7451
rtibia 29.3919
rfoot -8.23512 -3.60352
rtoes 8.67682
lfemur -2.76627 -0.534153 -16.6159
ltibia 61.6292
lfoot 10.7549 -15.4234
ltoes -6.85989
118
root -0.0921372 18.1527 4.39059 -3.74068 0.520721 -4.04033
lowerback 9.69346 -0.867705 2.05104
upperback 0.413085 -0.788798 2.67171
thorax -5.00071 -0.406603 1.74135
lowerneck -16.3544 -3.14914 -1.59902
upperneck 21.9128 -3.97268 -0.0378864
head 9.67042 -1.98536 -0.265376
rclavicle -5.15598e-015 0
rhumerus -36.6744 -31.8736 -69.6031
rradius 18.2878
rwrist 12.6843
rhand -18.5356 21.3669
rfingers 7.12502
rthumb 7.75335 -8.47099
lclavicle -5.15598e-015 0
lhumerus -27.4433 1.10439 82.8638
lradius 30.1398
lwrist 7.36285
lhand -28.0289 25.8561
lfingers 7.12502
lthumb -1.41381 55.8312
rfemur -15.3174 4.60007 29.2563
rtibia 29.2008
rfoot -8.68161 -3.57953
rtoes 9.13136
lfemur -4.18921 -0.205388 -16.0568
ltibia 63.1897
lfoot 9.19601 -14.5245
ltoes -7.1595
119
root -0.110205 18.1649 4.56017 -3.79106 0.432464 -4.23689
lowerback 9.8867 -0.742777 2.25913
upperback 0.349582 -0.589053 2.67234
thorax -5.1809 -0.313292 1.60174
lowerneck -16.193 -3.23012 -1.6178
upperneck 21.9828 -4.068 -0.104475
head 9.66467 -2.03928 -0.295672
rclavicle 2.25621e-014 2.22639e-014
rhumerus -36.2342 -31.2833 -70.0851
rradius 18.3236
rwrist 12.7744
rhand -17.9458 21.4286
rfingers 7.12502
rthumb 8.32265 -8.38746
lclavicle 2.25621e-014 2.22639e-014
lhumerus -27.7421 1.36468 82.9144
lradius 29.4739
lwrist 6.6149
lhand -28.4016 25.8594
lfingers 7.12502
lthumb -1.77377 55.8317
rfemur -14.5372 4.64992 29.6198
rtibia 29.0175
rfoot -9.20425 -3.64795
rtoes 9.34442
lfemur -5.601 0.181826 -15.6709
ltibia 64.5559
lfoot 7.8251 -13.6262
ltoes -8.73517
